<?xml version="1.0" encoding="UTF-8" standalone="no"?>
<!-- Created with Inkscape (http://www.inkscape.org/) -->

<svg
   xmlns:dc="http://purl.org/dc/elements/1.1/"
   xmlns:cc="http://creativecommons.org/ns#"
   xmlns:rdf="http://www.w3.org/1999/02/22-rdf-syntax-ns#"
   xmlns:svg="http://www.w3.org/2000/svg"
   xmlns="http://www.w3.org/2000/svg"
   xmlns:sodipodi="http://sodipodi.sourceforge.net/DTD/sodipodi-0.dtd"
   xmlns:inkscape="http://www.inkscape.org/namespaces/inkscape"
   width="301.18109"
   height="194.8819"
   viewBox="0 0 301.18111 194.88189"
   id="svg3553"
   version="1.1"
   inkscape:version="0.91 r13725"
   sodipodi:docname="mobilization_business_card.svg">
  <defs
     id="defs3555" />
  <sodipodi:namedview
     id="base"
     pagecolor="#ffffff"
     bordercolor="#666666"
     borderopacity="1.0"
     inkscape:pageopacity="0.0"
     inkscape:pageshadow="2"
     inkscape:zoom="1.4"
     inkscape:cx="329.1517"
     inkscape:cy="64.76086"
     inkscape:document-units="px"
     inkscape:current-layer="layer1"
     showgrid="false"
     units="px"
     inkscape:snap-grids="true"
     inkscape:window-width="1327"
     inkscape:window-height="744"
     inkscape:window-x="39"
     inkscape:window-y="24"
     inkscape:window-maximized="1" />
  <metadata
     id="metadata3558">
    <rdf:RDF>
      <cc:Work
         rdf:about="">
        <dc:format>image/svg+xml</dc:format>
        <dc:type
           rdf:resource="http://purl.org/dc/dcmitype/StillImage" />
        <dc:title></dc:title>
      </cc:Work>
    </rdf:RDF>
  </metadata>
  <g
     inkscape:label="Layer 1"
     inkscape:groupmode="layer"
     id="layer1"
     transform="translate(0,-857.48029)">
    <text
       xml:space="preserve"
       style="font-style:normal;font-weight:normal;font-size:25.00000381px;line-height:125%;font-family:sans-serif;letter-spacing:0px;word-spacing:0px;fill:#000000;fill-opacity:1;stroke:none;stroke-width:1px;stroke-linecap:butt;stroke-linejoin:miter;stroke-opacity:1"
       x="133.57143"
       y="895.93359"
       id="text3657"
       sodipodi:linespacing="125%"><tspan
         sodipodi:role="line"
         id="tspan3659"
         x="133.57143"
         y="895.93359"
         style="font-style:normal;font-variant:normal;font-weight:bold;font-stretch:normal;font-family:sans-serif;-inkscape-font-specification:'sans-serif Bold'">Mobilizacja</tspan></text>
    <text
       xml:space="preserve"
       style="font-style:normal;font-weight:normal;font-size:10.00000191px;line-height:125%;font-family:sans-serif;letter-spacing:0px;word-spacing:0px;fill:#000000;fill-opacity:1;stroke:none;stroke-width:1px;stroke-linecap:butt;stroke-linejoin:miter;stroke-opacity:1"
       x="132.14285"
       y="914.505"
       id="text3669"
       sodipodi:linespacing="125%"><tspan
         sodipodi:role="line"
         id="tspan3671"
         x="132.14285"
         y="914.505"
         style="font-size:10.00000191px">ul. Batalionów Chłopskich 3/48</tspan><tspan
         sodipodi:role="line"
         x="132.14285"
         y="927.005"
         id="tspan3673"
         style="font-size:10.00000191px">94-058 Łódź</tspan><tspan
         sodipodi:role="line"
         x="132.14285"
         y="939.505"
         id="tspan3675"
         style="font-size:10.00000191px">NIP: 7272785349</tspan></text>
    <text
       xml:space="preserve"
       style="font-style:normal;font-weight:normal;font-size:10px;line-height:125%;font-family:sans-serif;text-align:end;letter-spacing:0px;word-spacing:0px;text-anchor:end;fill:#000000;fill-opacity:1;stroke:none;stroke-width:1px;stroke-linecap:butt;stroke-linejoin:miter;stroke-opacity:1"
       x="286.90152"
       y="1030.9336"
       id="text3677"
       sodipodi:linespacing="125%"><tspan
         sodipodi:role="line"
         x="286.90152"
         y="1030.9336"
         id="tspan3689">www.mobilization.pl</tspan></text>
    <text
       xml:space="preserve"
       style="font-style:normal;font-weight:normal;font-size:10px;line-height:125%;font-family:sans-serif;letter-spacing:0px;word-spacing:0px;fill:#000000;fill-opacity:1;stroke:none;stroke-width:1px;stroke-linecap:butt;stroke-linejoin:miter;stroke-opacity:1"
       x="147.85715"
       y="1025.9336"
       id="text3683"
       sodipodi:linespacing="125%"><tspan
         sodipodi:role="line"
         id="tspan3685"
         x="147.85715"
         y="1025.9336" /></text>
    <text
       xml:space="preserve"
       style="font-style:normal;font-weight:normal;font-size:10px;line-height:125%;font-family:sans-serif;text-align:end;letter-spacing:0px;word-spacing:0px;text-anchor:end;fill:#000000;fill-opacity:1;stroke:none;stroke-width:1px;stroke-linecap:butt;stroke-linejoin:miter;stroke-opacity:1"
       x="285.58054"
       y="961.64783"
       id="text3691"
       sodipodi:linespacing="125%"><tspan
         sodipodi:role="line"
         id="tspan3693"
         x="285.58054"
         y="961.64783"
         style="font-style:normal;font-variant:normal;font-weight:bold;font-stretch:normal;font-size:12.50000191px;font-family:sans-serif;-inkscape-font-specification:'sans-serif Bold';text-align:end;text-anchor:end">Rafał Lenarczyk</tspan><tspan
         sodipodi:role="line"
         x="285.58054"
         y="977.27283"
         id="tspan3695"
         style="font-style:normal;font-variant:normal;font-weight:bold;font-stretch:normal;font-size:12.50000191px;font-family:sans-serif;-inkscape-font-specification:'sans-serif Bold';text-align:end;text-anchor:end">0048 530459617</tspan></text>
    <g
       id="g13161"
       transform="matrix(1.3665222,0,0,1.2971661,-10.528895,846.73497)">
      <path
         id="path2989"
         d="m 51.140232,23.742307 c 2.271238,-0.467736 4.725947,-0.705805 6.968716,0.0056 1.629092,0.434127 2.979814,1.408811 4.583599,1.893352 1.252661,0.389314 2.593894,0.224065 3.890841,0.20726 0.559901,2.123019 1.610112,4.103197 2.543281,6.111382 -0.559902,0.364106 -1.129293,0.717009 -1.695521,1.069912 -0.07908,0.518151 0.01582,1.092318 -0.287859,1.560055 -0.822454,0.703005 -2.062462,0.574167 -3.106346,0.714208 -0.05377,0.585371 -0.142347,1.176343 -0.06643,1.761714 0.186633,0.915867 0.841433,1.753311 0.718065,2.716791 -0.509289,0.327696 -1.10715,0.526554 -1.673377,0.761823 0.120204,2.002583 0.452349,4.002366 0.322655,6.010552 1.208374,0.492944 2.524301,0.817838 3.621961,1.504038 0.490309,0.966282 0.670616,2.033393 0.958475,3.058492 1.085007,-0.0056 1.860011,-0.6862 2.612873,-1.285575 0.234083,0.588172 0.436533,1.187546 0.702249,1.764515 0.389084,0.837444 1.170416,1.501237 1.420315,2.391897 0.164491,0.677797 0.161328,1.378002 0.208777,2.067002 1.54052,0.789831 3.207571,1.588063 4.11227,3.013679 0.727556,1.179144 1.587969,2.288267 2.502158,3.36098 -1.135619,0.504147 -2.315524,0.918668 -3.511246,1.296779 -6.446774,2.215446 -12.880895,4.4617 -19.32767,6.674343 -1.654397,0.588172 -3.346755,1.100721 -4.925234,1.840137 2.125727,0.0084 3.982576,-1.022298 5.921669,-1.655283 8.313112,-2.893241 16.550306,-5.957334 24.885561,-8.800164 3.691554,-1.307981 7.392596,-2.587954 11.06517,-3.937948 1.066027,-0.350102 2.18583,-0.829042 3.353082,-0.638586 0.914189,0.400517 0.892046,1.344392 0.967965,2.117417 -1.768276,0.845847 -3.6789,1.414412 -5.551565,2.050198 1.572153,1.117526 2.682466,2.657976 3.286653,4.352469 0.591534,1.655283 1.439294,3.397389 1.012251,5.161903 -0.670616,1.834535 -2.296545,3.296561 -4.12176,4.285249 -3.593491,1.81773 -7.702598,2.646772 -11.340375,4.383278 0.996434,1.128729 2.296544,2.271462 2.302871,3.809111 0.07276,2.671979 0.332145,5.341157 0.129695,8.013136 -0.888883,0.252073 -1.777766,0.504147 -2.663486,0.764622 -0.136021,0.915867 -0.243573,1.834535 -0.344798,2.753203 -1.913787,0.372509 -3.827575,0.733814 -5.741362,1.117526 0.02847,1.655282 0.401737,3.279756 0.63582,4.918236 -1.90746,0.07 -3.811758,0.0868 -5.719219,0.0728 -9.806182,0 -19.612365,-0.003 -29.418548,0.003 -1.850521,0.014 -3.704206,-0.0252 -5.554728,-0.0952 -0.468166,-1.739305 -0.939495,-3.481413 -1.363375,-5.231923 -0.22143,-0.789831 -0.389084,-1.630075 -0.955312,-2.291068 -0.512453,-0.674997 -1.382356,-1.260368 -1.271641,-2.162231 0.07908,-2.481523 -0.08224,-5.061075 1.110313,-7.374549 -2.204809,0.361305 -4.321047,1.366798 -6.617592,1.09792 -1.221028,-0.123236 -2.587567,-0.128838 -3.593491,-0.834644 -0.626331,-0.689 -0.759188,-1.616071 -1.081844,-2.431108 -0.351124,-1.226758 -0.964801,-2.408703 -1.091333,-3.674672 0.325819,-1.053107 1.230518,-1.926961 1.3096,-3.05289 0.123368,-1.072712 0.483983,-2.111815 1.148272,-3.01928 0.955312,-1.324786 1.274804,-2.887642 1.616439,-4.402881 0.316328,-1.487234 1.29062,-2.756003 1.901134,-4.15081 0.784495,-1.728105 1.268477,-3.601851 2.571751,-5.105889 1.401335,-1.61047 2.495831,-3.615855 4.675334,-4.517717 1.426642,-0.638587 3.372062,-0.462135 4.39064,-1.719702 1.031231,-1.254766 1.527866,-2.840028 2.875426,-3.898736 1.27164,-1.240762 3.704206,0.07002 4.842988,-1.338791 0.942659,-0.988688 1.524704,-2.394698 1.148273,-3.67187 -0.594698,-0.504147 -1.385519,-0.759021 -2.011849,-1.221156 -0.499799,-0.831843 -0.588371,-1.806527 -1.06919,-2.646772 -0.499799,-0.635785 -1.265314,-1.050306 -1.916951,-1.54605 0.180307,-1.103522 0.487146,-2.221048 0.265716,-3.338574 -0.183471,-1.092318 -0.550412,-2.282665 0.04112,-3.32737 0.534595,-0.957879 1.246334,-1.828933 1.822052,-2.767206 0.657963,-0.985888 1.189395,-2.114617 2.302871,-2.772809 1.534193,-1.022298 3.441654,-1.392006 5.273196,-1.772917 z"
         inkscape:connector-curvature="0"
         style="fill:#303316" />
    </g>
  </g>
  <g
     inkscape:groupmode="layer"
     id="layer2"
     inkscape:label="icon" />
</svg>
