<?xml version="1.0" encoding="UTF-8" standalone="no"?>
<!-- Created with Inkscape (http://www.inkscape.org/) -->

<svg
   xmlns:dc="http://purl.org/dc/elements/1.1/"
   xmlns:cc="http://creativecommons.org/ns#"
   xmlns:rdf="http://www.w3.org/1999/02/22-rdf-syntax-ns#"
   xmlns:svg="http://www.w3.org/2000/svg"
   xmlns="http://www.w3.org/2000/svg"
   xmlns:sodipodi="http://sodipodi.sourceforge.net/DTD/sodipodi-0.dtd"
   xmlns:inkscape="http://www.inkscape.org/namespaces/inkscape"
   width="301.18109"
   height="194.8819"
   viewBox="0 0 301.18111 194.88189"
   id="svg3553"
   version="1.1"
   inkscape:version="0.91 r13725"
   sodipodi:docname="mobilization_business_card.svg">
  <defs
     id="defs3555" />
  <sodipodi:namedview
     id="base"
     pagecolor="#ffffff"
     bordercolor="#666666"
     borderopacity="1.0"
     inkscape:pageopacity="0.0"
     inkscape:pageshadow="2"
     inkscape:zoom="1.4"
     inkscape:cx="51.717626"
     inkscape:cy="93.332289"
     inkscape:document-units="px"
     inkscape:current-layer="layer1"
     showgrid="false"
     units="px"
     inkscape:snap-grids="false"
     inkscape:window-width="1440"
     inkscape:window-height="810"
     inkscape:window-x="0"
     inkscape:window-y="1"
     inkscape:window-maximized="1"
     inkscape:snap-text-baseline="false" />
  <metadata
     id="metadata3558">
    <rdf:RDF>
      <cc:Work
         rdf:about="">
        <dc:format>image/svg+xml</dc:format>
        <dc:type
           rdf:resource="http://purl.org/dc/dcmitype/StillImage" />
        <dc:title />
      </cc:Work>
    </rdf:RDF>
  </metadata>
  <g
     inkscape:label="Layer 1"
     inkscape:groupmode="layer"
     id="layer1"
     transform="translate(0,-857.48029)">
    <text
       xml:space="preserve"
       style="font-style:normal;font-weight:normal;font-size:25.00000381px;line-height:125%;font-family:sans-serif;letter-spacing:0px;word-spacing:0px;fill:#000000;fill-opacity:1;stroke:none;stroke-width:1px;stroke-linecap:butt;stroke-linejoin:miter;stroke-opacity:1"
       x="6.4370894"
       y="886.64789"
       id="text3657"
       sodipodi:linespacing="125%"><tspan
         sodipodi:role="line"
         id="tspan3659"
         x="6.4370894"
         y="886.64789"
         style="font-style:normal;font-variant:normal;font-weight:bold;font-stretch:normal;font-size:21.25000381px;font-family:sans-serif;-inkscape-font-specification:'sans-serif Bold'">Mobilization conference</tspan></text>
    <text
       xml:space="preserve"
       style="font-style:normal;font-weight:normal;font-size:10.00000191px;line-height:125%;font-family:sans-serif;letter-spacing:0px;word-spacing:0px;fill:#000000;fill-opacity:1;stroke:none;stroke-width:1px;stroke-linecap:butt;stroke-linejoin:miter;stroke-opacity:1"
       x="7.7578902"
       y="901.52765"
       id="text3669"
       sodipodi:linespacing="125%"><tspan
         sodipodi:role="line"
         id="tspan3671"
         x="7.7578902"
         y="901.52765"
         style="font-size:10.00000191px">Mobilization Spółka z ograniczoną odpowiedzialnością</tspan><tspan
         sodipodi:role="line"
         x="7.7578902"
         y="914.40063"
         id="tspan3673"
         style="font-size:10.00000191px">Kusocińskiego 126/42</tspan><tspan
         sodipodi:role="line"
         x="7.7578902"
         y="927.27368"
         style="font-size:10.00000191px"
         id="tspan5907">94-054 Łódź</tspan><tspan
         sodipodi:role="line"
         x="7.7578902"
         y="940.14667"
         style="font-size:10.00000191px"
         id="tspan6424" /></text>
    <text
       xml:space="preserve"
       style="font-style:normal;font-weight:normal;font-size:10px;line-height:125%;font-family:sans-serif;letter-spacing:0px;word-spacing:0px;fill:#000000;fill-opacity:1;stroke:none;stroke-width:1px;stroke-linecap:butt;stroke-linejoin:miter;stroke-opacity:1"
       x="147.85715"
       y="1025.9336"
       id="text3683"
       sodipodi:linespacing="125%"><tspan
         sodipodi:role="line"
         id="tspan3685"
         x="147.85715"
         y="1025.9336" /></text>
    <text
       xml:space="preserve"
       style="font-style:normal;font-weight:normal;font-size:10px;line-height:125%;font-family:sans-serif;text-align:end;letter-spacing:0px;word-spacing:0px;text-anchor:end;fill:#000000;fill-opacity:1;stroke:none;stroke-width:1px;stroke-linecap:butt;stroke-linejoin:miter;stroke-opacity:1"
       x="7.814043"
       y="1012.6479"
       id="text3691"
       sodipodi:linespacing="125%"><tspan
         sodipodi:role="line"
         x="7.814043"
         y="1012.6479"
         style="font-style:normal;font-variant:normal;font-weight:normal;font-stretch:normal;font-size:12.50000191px;font-family:sans-serif;-inkscape-font-specification:sans-serif;text-align:start;text-anchor:start;fill:#000000"
         id="tspan4858">www.mobilization.pl</tspan><tspan
         sodipodi:role="line"
         x="7.814043"
         y="1028.2729"
         style="font-style:italic;font-variant:normal;font-weight:normal;font-stretch:normal;font-size:12.50000191px;font-family:sans-serif;-inkscape-font-specification:'sans-serif Italic';text-align:start;text-anchor:start;fill:#0000ff"
         id="tspan6702">contact@mobilization.pl</tspan><tspan
         sodipodi:role="line"
         x="7.814043"
         y="1043.8979"
         style="font-style:italic;font-variant:normal;font-weight:normal;font-stretch:normal;font-size:12.50000191px;font-family:sans-serif;-inkscape-font-specification:'sans-serif Italic';text-align:start;text-anchor:start"
         id="tspan5653">+48 517 725 068/+48 792 016 612</tspan></text>
    <text
       xml:space="preserve"
       style="font-style:normal;font-weight:normal;font-size:40px;line-height:125%;font-family:Sans;letter-spacing:0px;word-spacing:0px;fill:#000000;fill-opacity:1;stroke:none"
       x="428.04996"
       y="1018.6689"
       id="text2986"
       sodipodi:linespacing="125%"><tspan
         sodipodi:role="line"
         id="tspan2988"
         x="428.04996"
         y="1018.6689" /></text>
    <text
       xml:space="preserve"
       style="font-style:normal;font-weight:normal;font-size:40px;line-height:125%;font-family:Sans;letter-spacing:0px;word-spacing:0px;fill:#000000;fill-opacity:1;stroke:none"
       x="395.72507"
       y="1374.2426"
       id="text3008"
       sodipodi:linespacing="125%"><tspan
         sodipodi:role="line"
         id="tspan3010"
         x="395.72507"
         y="1374.2426" /></text>
    <g
       id="g4194"
       transform="matrix(1.4673161,0,0,1.4673161,144.87339,871.8921)">
      <g
         id="g5888"
         transform="matrix(1.0897049,0,0,1.0897059,-5.8790177,-2.2464063)">
        <g
           id="g13161"
           transform="matrix(1,0,0,1.0030528,0,-0.30837168)">
          <path
             id="path2989"
             d="m 51.140232,23.742307 c 2.271238,-0.467736 4.725947,-0.705805 6.968716,0.0056 1.629092,0.434127 2.979814,1.408811 4.583599,1.893352 1.252661,0.389314 2.593894,0.224065 3.890841,0.20726 0.559901,2.123019 1.610112,4.103197 2.543281,6.111382 -0.559902,0.364106 -1.129293,0.717009 -1.695521,1.069912 -0.07908,0.518151 0.01582,1.092318 -0.287859,1.560055 -0.822454,0.703005 -2.062462,0.574167 -3.106346,0.714208 -0.05377,0.585371 -0.142347,1.176343 -0.06643,1.761714 0.186633,0.915867 0.841433,1.753311 0.718065,2.716791 -0.509289,0.327696 -1.10715,0.526554 -1.673377,0.761823 0.120204,2.002583 0.452349,4.002366 0.322655,6.010552 1.208374,0.492944 2.524301,0.817838 3.621961,1.504038 0.490309,0.966282 0.670616,2.033393 0.958475,3.058492 1.085007,-0.0056 1.860011,-0.6862 2.612873,-1.285575 0.234083,0.588172 0.436533,1.187546 0.702249,1.764515 0.389084,0.837444 1.170416,1.501237 1.420315,2.391897 0.164491,0.677797 0.161328,1.378002 0.208777,2.067002 1.54052,0.789831 3.207571,1.588063 4.11227,3.013679 0.727556,1.179144 1.587969,2.288267 2.502158,3.36098 -1.135619,0.504147 -2.315524,0.918668 -3.511246,1.296779 -6.446774,2.215446 -12.880895,4.4617 -19.32767,6.674343 -1.654397,0.588172 -3.346755,1.100721 -4.925234,1.840137 2.125727,0.0084 3.982576,-1.022298 5.921669,-1.655283 8.313112,-2.893241 16.550306,-5.957334 24.885561,-8.800164 3.691554,-1.307981 7.392596,-2.587954 11.06517,-3.937948 1.066027,-0.350102 2.18583,-0.829042 3.353082,-0.638586 0.914189,0.400517 0.892046,1.344392 0.967965,2.117417 -1.768276,0.845847 -3.6789,1.414412 -5.551565,2.050198 1.572153,1.117526 2.682466,2.657976 3.286653,4.352469 0.591534,1.655283 1.439294,3.397389 1.012251,5.161903 -0.670616,1.834535 -2.296545,3.296561 -4.12176,4.285249 -3.593491,1.81773 -7.702598,2.646772 -11.340375,4.383278 0.996434,1.128729 2.296544,2.271462 2.302871,3.809111 0.07276,2.671979 0.332145,5.341157 0.129695,8.013136 -0.888883,0.252073 -1.777766,0.504147 -2.663486,0.764622 -0.136021,0.915867 -0.243573,1.834535 -0.344798,2.753203 -1.913787,0.372509 -3.827575,0.733814 -5.741362,1.117526 0.02847,1.655282 0.401737,3.279756 0.63582,4.918236 -1.90746,0.07 -3.811758,0.0868 -5.719219,0.0728 -9.806182,0 -19.612365,-0.003 -29.418548,0.003 -1.850521,0.014 -3.704206,-0.0252 -5.554728,-0.0952 -0.468166,-1.739305 -0.939495,-3.481413 -1.363375,-5.231923 -0.22143,-0.789831 -0.389084,-1.630075 -0.955312,-2.291068 -0.512453,-0.674997 -1.382356,-1.260368 -1.271641,-2.162231 0.07908,-2.481523 -0.08224,-5.061075 1.110313,-7.374549 -2.204809,0.361305 -4.321047,1.366798 -6.617592,1.09792 -1.221028,-0.123236 -2.587567,-0.128838 -3.593491,-0.834644 -0.626331,-0.689 -0.759188,-1.616071 -1.081844,-2.431108 -0.351124,-1.226758 -0.964801,-2.408703 -1.091333,-3.674672 0.325819,-1.053107 1.230518,-1.926961 1.3096,-3.05289 0.123368,-1.072712 0.483983,-2.111815 1.148272,-3.01928 0.955312,-1.324786 1.274804,-2.887642 1.616439,-4.402881 0.316328,-1.487234 1.29062,-2.756003 1.901134,-4.15081 0.784495,-1.728105 1.268477,-3.601851 2.571751,-5.105889 1.401335,-1.61047 2.495831,-3.615855 4.675334,-4.517717 1.426642,-0.638587 3.372062,-0.462135 4.39064,-1.719702 1.031231,-1.254766 1.527866,-2.840028 2.875426,-3.898736 1.27164,-1.240762 3.704206,0.07002 4.842988,-1.338791 0.942659,-0.988688 1.524704,-2.394698 1.148273,-3.67187 -0.594698,-0.504147 -1.385519,-0.759021 -2.011849,-1.221156 -0.499799,-0.831843 -0.588371,-1.806527 -1.06919,-2.646772 -0.499799,-0.635785 -1.265314,-1.050306 -1.916951,-1.54605 0.180307,-1.103522 0.487146,-2.221048 0.265716,-3.338574 -0.183471,-1.092318 -0.550412,-2.282665 0.04112,-3.32737 0.534595,-0.957879 1.246334,-1.828933 1.822052,-2.767206 0.657963,-0.985888 1.189395,-2.114617 2.302871,-2.772809 1.534193,-1.022298 3.441654,-1.392006 5.273196,-1.772917 z"
             inkscape:connector-curvature="0"
             style="fill:#303316" />
        </g>
        <path
           style="fill:#ffffff"
           inkscape:connector-curvature="0"
           d="m 73.210469,67.846766 c 2.578077,-1.243563 5.352278,-2.134222 8.06954,-3.106106 0.714902,1.156737 1.265314,2.386296 1.72399,3.638261 0.87623,2.347082 1.999196,4.615743 2.897569,6.954425 -2.710935,0.963481 -5.418707,1.95497 -8.227704,2.67478 -1.553173,-3.363781 -3.03359,-6.75557 -4.463395,-10.16136 z"
           id="path2991" />
        <path
           style="fill:#ffffff"
           inkscape:connector-curvature="0"
           d="m 68.908402,68.855057 c 0.487146,-0.291284 1.066027,-0.422921 1.610112,-0.604974 0.08225,0.93267 0.09806,1.868143 0.05061,2.803615 -0.866741,-0.198858 -1.714501,-0.456533 -2.540118,-0.761822 0.275206,-0.484541 0.436533,-1.047505 0.879393,-1.436819 z"
           id="path2993" />
        <path
           style="fill:#ffffff"
           inkscape:connector-curvature="0"
           d="m 64.280516,71.283365 c 0.499799,-0.408919 0.948986,-1.072712 1.723991,-1.022298 1.129292,-0.123236 1.92644,1.495636 1.024904,2.120218 -0.993272,-0.196057 -1.875828,-0.655391 -2.748895,-1.09792 z"
           id="path2995" />
        <path
           style="fill:#ffffff"
           inkscape:connector-curvature="0"
           d="m 58.991504,71.006085 c 0.69276,-0.302489 1.448785,0.156845 1.897971,0.607777 0.84776,0.820639 0.496636,2.013787 0.490309,3.016479 -0.83827,-0.10363 -1.828378,-0.09243 -2.435729,-0.700204 -0.797148,-0.78983 -1.034394,-2.240653 0.04745,-2.924052 z"
           id="path2997" />
        <path
           style="fill:#ffffff"
           inkscape:connector-curvature="0"
           d="m 68.531971,72.952652 c 0.958475,-0.41172 1.916951,-0.820639 2.878589,-1.226758 1.214702,1.109124 1.913788,2.565548 1.768276,4.125603 -1.113476,0.128838 -2.214299,0.324895 -3.321449,0.490143 -0.733882,-1.022298 -1.214701,-2.176234 -1.325416,-3.388988 z"
           id="path2999" />
        <path
           style="fill:#ffffff"
           inkscape:connector-curvature="0"
           d="m 55.031072,72.860225 c -0.316329,-0.61898 0.588371,-0.557362 1.031231,-0.551761 0.775004,0.27448 1.249497,0.941075 1.793582,1.467628 -0.964802,-0.24087 -1.9644,-0.44533 -2.824813,-0.915867 z"
           id="path3001" />
        <path
           style="fill:#ffffff"
           inkscape:connector-curvature="0"
           d="m 61.03815,74.890817 c 0.926842,0.386513 2.13838,0.666594 2.489505,1.638478 0.224593,0.82344 0.360614,1.935364 -0.550412,2.481523 -0.784495,0.0056 -1.410825,-0.484541 -2.065625,-0.795432 0.427044,-0.711407 0.907863,-1.392006 1.410825,-2.061401 -0.436533,-0.414521 -0.863577,-0.837444 -1.284293,-1.263168 z"
           id="path3003" />
        <path
           style="fill:#ffffff"
           inkscape:connector-curvature="0"
           d="m 57.033431,78.84557 c -0.316328,-0.812237 0.107552,-1.607669 0.642147,-2.254657 0.88572,0.467736 2.049808,0.837444 2.347157,1.814929 0.351125,0.78983 -0.281532,1.529246 -0.61684,2.226649 -0.971129,-0.350102 -2.113075,-0.784229 -2.372464,-1.786921 z"
           id="path3005" />
        <path
           style="fill:#ffffff"
           inkscape:connector-curvature="0"
           d="m 70.736781,77.09786 c 1.176742,-0.417321 2.60022,-0.145642 3.451143,0.689001 0.328982,0.515351 0.237247,1.151136 0.347962,1.719702 -0.850924,0.0084 -1.844195,0.266077 -2.549608,-0.296887 -0.819291,-0.462135 -0.993271,-1.352794 -1.249497,-2.111816 z"
           id="path3007" />
        <path
           style="fill:#ffffff"
           inkscape:connector-curvature="0"
           d="m 53.186877,80.038718 c 0.974292,-0.456533 2.018175,-0.773026 3.068386,-1.058709 -0.0063,0.840245 0.278369,1.78412 -0.265716,2.543141 -1.243171,0.851449 -2.309198,-0.613378 -2.80267,-1.484432 z"
           id="path3009" />
        <path
           style="fill:#ffffff"
           inkscape:connector-curvature="0"
           d="m 63.201836,79.641002 c 0.446023,-0.162448 1.002762,-0.173651 1.350723,0.17085 1.018578,0.680598 1.27164,1.929762 0.892046,2.966064 -0.933169,1.151136 -2.57175,-0.08963 -2.777364,-1.120326 -0.07275,-0.677798 -0.291022,-1.635677 0.534595,-2.016588 z"
           id="path3011" />
        <path
           style="fill:#ffffff"
           inkscape:connector-curvature="0"
           d="m 48.992361,80.657698 c 1.179905,0.212862 2.325015,0.54896 3.435327,0.969083 -0.221429,0.787029 -0.648473,1.512441 -1.27164,2.111815 -0.563065,-0.383712 -1.186232,-0.725411 -1.613275,-1.237961 -0.354288,-0.562964 -0.398574,-1.223956 -0.550412,-1.842937 z"
           id="path3013" />
        <path
           style="fill:#ffffff"
           inkscape:connector-curvature="0"
           d="m 58.997831,81.783626 c 0.287859,-0.350102 0.638983,-0.655391 0.974292,-0.971883 0.670616,0.459334 1.486743,0.851448 1.847358,1.568457 0.379594,0.733814 0.411227,1.78132 -0.42388,2.288267 -1.736644,0.386513 -2.973488,-1.588063 -2.39777,-2.884841 z"
           id="path3015" />
        <path
           style="fill:#ffffff"
           inkscape:connector-curvature="0"
           d="m 55.964241,82.458623 c 0.939495,-0.352903 1.708174,0.644188 2.132054,1.271571 0.341634,0.795432 0.370104,2.380694 -0.974292,2.338682 -1.679704,-0.201659 -2.910222,-2.767207 -1.157762,-3.610253 z"
           id="path3017" />
        <path
           style="fill:#ffffff"
           inkscape:connector-curvature="0"
           d="m 51.674827,83.646169 c 0.743372,0.243671 1.679704,0.322094 2.12889,0.980286 0.69276,0.817839 0.91419,2.173434 -0.189797,2.81202 -1.034394,0.229667 -1.901134,-0.537757 -2.258585,-1.319185 -0.325818,-0.82624 0.05378,-1.68329 0.319492,-2.473121 z"
           id="path3019" />
      </g>
    </g>
    <rect
       style="fill:#000000;fill-opacity:0"
       id="rect4388"
       width="301.18137"
       height="191.33832"
       x="251.2731"
       y="920.26447" />
    <text
       xml:space="preserve"
       style="font-style:normal;font-weight:normal;font-size:40px;line-height:125%;font-family:sans-serif;letter-spacing:0px;word-spacing:0px;fill:#000000;fill-opacity:1;stroke:none;stroke-width:1px;stroke-linecap:butt;stroke-linejoin:miter;stroke-opacity:1"
       x="7.4063277"
       y="942.93359"
       id="text5913"
       sodipodi:linespacing="125%"><tspan
         sodipodi:role="line"
         id="tspan5915"
         x="7.4063277"
         y="942.93359"
         style="font-size:10.00000191px">NIP: 7272793047</tspan><tspan
         sodipodi:role="line"
         x="7.4063277"
         y="955.43359"
         id="tspan5917"
         style="font-size:10.00000191px">KRS: 0000518225</tspan></text>
  </g>
  <g
     inkscape:groupmode="layer"
     id="layer2"
     inkscape:label="icon" />
</svg>
